<svg aria-hidden="true" style="position:absolute;width:0;height:0" xmlns="http://www.w3.org/2000/svg" overflow="hidden"><defs>

<symbol id="icon-facebook" viewBox="0 0 32 32"><path d="M21.329 5.313h2.921V.225C23.746.156 22.013 0 19.994 0c-4.212 0-7.097 2.649-7.097 7.519V12H8.249v5.688h4.648V32h5.699V17.689h4.46l.708-5.688h-5.169V8.082c.001-1.644.444-2.769 2.735-2.769z"/></symbol>

<symbol id="icon-insta" viewBox="0 0 32 32"><path d="M31.969 9.408c-.075-1.7-.35-2.869-.744-3.882a7.806 7.806 0 00-1.851-2.838A7.867 7.867 0 0026.542.844C25.523.45 24.36.175 22.66.1 20.947.019 20.403 0 16.059 0s-4.888.019-6.595.094c-1.7.075-2.869.35-3.882.744a7.803 7.803 0 00-2.838 1.85A7.867 7.867 0 00.9 5.52C.506 6.539.231 7.702.156 9.402c-.081 1.713-.1 2.257-.1 6.601s.019 4.888.094 6.595c.075 1.7.35 2.869.744 3.882a7.895 7.895 0 001.85 2.838 7.867 7.867 0 002.832 1.844c1.019.394 2.182.669 3.882.744 1.706.075 2.25.094 6.595.094s4.888-.019 6.595-.094c1.7-.075 2.869-.35 3.882-.744a8.184 8.184 0 004.682-4.682c.394-1.019.669-2.182.744-3.882.075-1.707.094-2.251.094-6.595s-.006-4.888-.081-6.595zm-2.882 13.065c-.069 1.563-.331 2.407-.55 2.969a5.31 5.31 0 01-3.038 3.038c-.563.219-1.413.481-2.969.55-1.688.075-2.194.094-6.464.094s-4.782-.019-6.464-.094c-1.563-.069-2.407-.331-2.969-.55a4.926 4.926 0 01-1.838-1.194 4.974 4.974 0 01-1.194-1.838c-.219-.563-.481-1.413-.55-2.969-.075-1.688-.094-2.194-.094-6.464s.019-4.782.094-6.464c.069-1.563.331-2.407.55-2.969a4.868 4.868 0 011.2-1.838A4.974 4.974 0 016.639 3.55c.563-.219 1.413-.481 2.969-.55 1.688-.075 2.194-.094 6.464-.094 4.276 0 4.782.019 6.464.094 1.563.069 2.407.331 2.969.55a4.914 4.914 0 011.838 1.194 4.974 4.974 0 011.194 1.838c.219.563.481 1.413.55 2.969.075 1.688.094 2.194.094 6.464s-.019 4.77-.094 6.458z"/><path d="M16.059 7.783c-4.538 0-8.22 3.682-8.22 8.22s3.682 8.22 8.22 8.22c4.539 0 8.22-3.682 8.22-8.22s-3.682-8.22-8.22-8.22zm0 13.552a5.333 5.333 0 010-10.664 5.333 5.333 0 010 10.664zM26.524 7.458a1.919 1.919 0 11-3.838 0 1.919 1.919 0 013.838 0z"/></symbol>

<symbol id="icon-linkedin" viewBox="0 0 32 32"><path d="M31.992 32v-.001H32V20.263c0-5.741-1.236-10.164-7.948-10.164-3.227 0-5.392 1.771-6.276 3.449h-.093v-2.913h-6.364v21.364h6.627V21.42c0-2.785.528-5.479 3.977-5.479 3.399 0 3.449 3.179 3.449 5.657v10.401h6.62zM.528 10.636h6.635V32H.528V10.636zM3.843 0C1.722 0 0 1.721 0 3.843s1.721 3.879 3.843 3.879c2.121 0 3.843-1.757 3.843-3.879A3.846 3.846 0 003.843 0z"/></symbol>


<symbol id="icon-email" viewBox="0 0 18 18">
<path d="M15 3H3C2.175 3 1.5075 3.675 1.5075 4.5L1.5 13.5C1.5 14.325 2.175 15 3 15H15C15.825 15 16.5 14.325 16.5 13.5V4.5C16.5 3.675 15.825 3 15 3ZM14.7 6.1875L9.3975 9.5025C9.1575 9.6525 8.8425 9.6525 8.6025 9.5025L3.3 6.1875C3.1125 6.0675 3 5.865 3 5.6475C3 5.145 3.5475 4.845 3.975 5.1075L9 8.25L14.025 5.1075C14.4525 4.845 15 5.145 15 5.6475C15 5.865 14.8875 6.0675 14.7 6.1875Z"/></symbol>


<symbol id="icon-name" viewBox="0 0 18 18">
<path d="M9 9C10.6575 9 12 7.6575 12 6C12 4.3425 10.6575 3 9 3C7.3425 3 6 4.3425 6 6C6 7.6575 7.3425 9 9 9ZM9 10.5C6.9975 10.5 3 11.505 3 13.5V14.25C3 14.6625 3.3375 15 3.75 15H14.25C14.6625 15 15 14.6625 15 14.25V13.5C15 11.505 11.0025 10.5 9 10.5Z"/></symbol>


<symbol id="icon-tel" viewBox="0 0 18 18">
<path d="M13.9958 11.1226L12.1576 10.9127C11.7162 10.862 11.282 11.014 10.9708 11.3252L9.63924 12.6568C7.59123 11.6147 5.91229 9.94296 4.8702 7.8877L6.209 6.54888C6.52018 6.2377 6.67216 5.80349 6.6215 5.36205L6.41163 3.53836C6.32479 2.80745 5.70966 2.25745 4.97151 2.25745H3.71955C2.90179 2.25745 2.22153 2.93771 2.27219 3.75547C2.65574 9.93572 7.59847 14.8712 13.7714 15.2548C14.5892 15.3054 15.2695 14.6252 15.2695 13.8074V12.5555C15.2767 11.8245 14.7267 11.2094 13.9958 11.1226Z"/></symbol>
<symbol id="icon-check" viewBox="0 0 16 15">
<path d="M3.95703 7.75166L3.88825 7.68604L3.81923 7.75141L2.93123 8.59258L2.85486 8.66492L2.93097 8.73753L6.42671 12.0724L6.49574 12.1382L6.56476 12.0724L14.069 4.91352L14.1449 4.84116L14.069 4.76881L13.1873 3.92764L13.1183 3.86183L13.0493 3.92761L6.49577 10.1735L3.95703 7.75166Z"/></symbol>
<symbol id="icon-noncheck" viewBox="0 0 16 15">
<path d="M14.2222 1.66667V13.3333H1.77778V1.66667H14.2222ZM14.2222 0H1.77778C0.8 0 0 0.75 0 1.66667V13.3333C0 14.25 0.8 15 1.77778 15H14.2222C15.2 15 16 14.25 16 13.3333V1.66667C16 0.75 15.2 0 14.2222 0Z"/></symbol>

<symbol id="icon-menu" viewBox="0 0 40 40">
<path d="M8 14.6667V12H32V14.6667H8ZM8 21.3333H32V18.6667H8V21.3333ZM8 28H32V25.3333H8V28Z"/></symbol>

<symbol id="github" enable-background="new 0 0 24 24" viewBox="0 0 24 24"><path d="m12 .5c-6.63 0-12 5.28-12 11.792 0 5.211 3.438 9.63 8.205 11.188.6.111.82-.254.82-.567 0-.28-.01-1.022-.015-2.005-3.338.711-4.042-1.582-4.042-1.582-.546-1.361-1.335-1.725-1.335-1.725-1.087-.731.084-.716.084-.716 1.205.082 1.838 1.215 1.838 1.215 1.07 1.803 2.809 1.282 3.495.981.108-.763.417-1.282.76-1.577-2.665-.295-5.466-1.309-5.466-5.827 0-1.287.465-2.339 1.235-3.164-.135-.298-.54-1.497.105-3.121 0 0 1.005-.316 3.3 1.209.96-.262 1.98-.392 3-.398 1.02.006 2.04.136 3 .398 2.28-1.525 3.285-1.209 3.285-1.209.645 1.624.24 2.823.12 3.121.765.825 1.23 1.877 1.23 3.164 0 4.53-2.805 5.527-5.475 5.817.42.354.81 1.077.81 2.182 0 1.578-.015 2.846-.015 3.229 0 .309.21.678.825.56 4.801-1.548 8.236-5.97 8.236-11.173 0-6.512-5.373-11.792-12-11.792z"/></symbol>

</defs></svg>








